<svg width="250" height="250" viewBox="0 0 250 250" fill="none" xmlns="http://www.w3.org/2000/svg">
<path d="M250 125C250 194.036 194.036 250 125 250C55.9644 250 0 194.036 0 125C0 55.9644 55.9644 0 125 0C194.036 0 250 55.9644 250 125Z" fill="black"/>
<path d="M102.093 200.25C93.2934 198.15 86.9434 194.85 83.0434 190.35C79.2434 185.95 77.3434 180.25 77.3434 173.25V152.25C77.3434 147.65 76.1434 143.85 73.7434 140.85C71.4434 137.75 67.6434 135.8 62.3434 135V130.5C67.6434 129.7 71.4434 127.8 73.7434 124.8C76.1434 121.7 77.3434 117.85 77.3434 113.25V92.25C77.3434 85.35 79.2434 79.7 83.0434 75.3C86.9434 70.9 93.2934 67.55 102.093 65.25V69.75C97.0934 71.25 93.6934 73.2 91.8934 75.6C90.1934 78 89.3434 81.55 89.3434 86.25V111.75C89.3434 117.65 88.0434 122.25 85.4434 125.55C82.9434 128.85 78.9934 131.25 73.5934 132.75C78.9934 134.25 82.9434 136.65 85.4434 139.95C88.0434 143.25 89.3434 147.85 89.3434 153.75V179.25C89.3434 183.95 90.1934 187.5 91.8934 189.9C93.6934 192.4 97.0934 194.35 102.093 195.75V200.25Z" fill="white"/>
<path d="M147.95 195.75C152.95 194.35 156.3 192.4 158 189.9C159.8 187.5 160.7 183.95 160.7 179.25V153.75C160.7 147.85 161.95 143.25 164.45 139.95C167.05 136.65 171.05 134.25 176.45 132.75C171.05 131.25 167.05 128.85 164.45 125.55C161.95 122.25 160.7 117.65 160.7 111.75V86.25C160.7 81.55 159.8 78 158 75.6C156.3 73.2 152.95 71.25 147.95 69.75V65.25C156.75 67.55 163.05 70.9 166.85 75.3C170.75 79.7 172.7 85.35 172.7 92.25V113.25C172.7 117.85 173.85 121.7 176.15 124.8C178.55 127.8 182.4 129.7 187.7 130.5V135C182.4 135.8 178.55 137.75 176.15 140.85C173.85 143.85 172.7 147.65 172.7 152.25V173.25C172.7 180.25 170.75 185.95 166.85 190.35C163.05 194.85 156.75 198.15 147.95 200.25V195.75Z" fill="white"/>
</svg>
