<svg width="912" height="865" viewBox="0 0 912 865" fill="none" xmlns="http://www.w3.org/2000/svg">
<rect x="86.5" y="356.5" width="299" height="299" rx="9.5" stroke="#3F2B7E"/>
<rect x="86.5" y="356.5" width="299" height="299" rx="9.5" stroke="#3F2B7E"/>
<rect x="492.5" y="485.5" width="239" height="239" rx="9.5" stroke="#3F2B7E"/>
<rect x="492.5" y="485.5" width="239" height="239" rx="9.5" stroke="#3F2B7E"/>
<rect y="506" width="236" height="236" rx="10" fill="#A90D25"/>
<rect y="506" width="236" height="236" rx="10" fill="#A90D25"/>
<rect x="406" y="575" width="290" height="290" rx="10" fill="#A90D25"/>
<rect x="406" y="575" width="290" height="290" rx="10" fill="#A90D25"/>
<rect x="256" y="676" width="128" height="128" rx="10" fill="#3F2B7E"/>
<rect x="256" y="676" width="128" height="128" rx="10" fill="#3F2B7E"/>
<rect x="716.5" y="745.5" width="89" height="89" rx="9.5" fill="#3F2B7E" stroke="#3F2B7E"/>
<rect x="716.5" y="745.5" width="89" height="89" rx="9.5" fill="#3F2B7E" stroke="#3F2B7E"/>
<rect x="404.5" y="295.5" width="169" height="169" rx="9.5" stroke="#3F2B7E"/>
<rect x="404.5" y="295.5" width="169" height="169" rx="9.5" stroke="#3F2B7E"/>
<rect x="171" y="272" width="65" height="65" rx="10" fill="#3F2B7E"/>
<rect x="171" y="272" width="65" height="65" rx="10" fill="#3F2B7E"/>
<rect x="404" y="485" width="65" height="65" rx="10" fill="#A90D25"/>
<rect x="404" y="485" width="65" height="65" rx="10" fill="#A90D25"/>
<rect x="672.5" y="0.5" width="64" height="64" rx="9.5" stroke="#A90D25"/>
<rect x="594" y="295" width="170" height="170" rx="10" fill="#A90D25"/>
<rect x="594" y="295" width="170" height="170" rx="10" fill="#A90D25"/>
<rect x="256" y="208" width="128" height="128" rx="10" fill="#A90D25"/>
<rect x="256" y="208" width="128" height="128" rx="10" fill="#A90D25"/>
<rect x="784.5" y="295.5" width="127" height="127" rx="9.5" stroke="#3F2B7E"/>
<rect x="784.5" y="295.5" width="127" height="127" rx="9.5" stroke="#3F2B7E"/>
<rect x="404.5" y="27.5" width="247" height="247" rx="9.5" stroke="#A90D25"/>
<rect x="404.5" y="27.5" width="247" height="247" rx="9.5" stroke="#A90D25"/>
<rect x="672" y="85" width="190" height="190" rx="10" fill="#3F2B7E"/>
<rect x="672" y="85" width="190" height="190" rx="10" fill="#3F2B7E"/>
</svg>
