<svg width="80" height="80" viewBox="0 0 80 80" fill="none" xmlns="http://www.w3.org/2000/svg">
<g clip-path="url(#clip0_377_480)">
<path d="M40 80C62.0914 80 80 62.0914 80 40C80 17.9086 62.0914 0 40 0C17.9086 0 0 17.9086 0 40C0 62.0914 17.9086 80 40 80Z" fill="black"/>
<mask id="mask0_377_480" style="mask-type:luminance" maskUnits="userSpaceOnUse" x="19" y="28" width="42" height="21">
<path d="M60.8422 28H19.158V48.4211H60.8422V28Z" fill="white"/>
</mask>
<g mask="url(#mask0_377_480)">
<path d="M54.7772 33.4737C55.9269 33.4737 56.942 33.7072 57.8222 34.1743C58.7206 34.6234 59.4212 35.324 59.9241 36.2762C60.4452 37.2103 60.7056 38.4141 60.7056 39.8872V48.187H56.5018V40.5339C56.5018 39.3661 56.2593 38.5038 55.7742 37.947C55.2892 37.3901 54.6064 37.1116 53.7262 37.1116C53.1155 37.1116 52.5675 37.2554 52.0824 37.5427C51.5974 37.8122 51.2201 38.2255 50.9507 38.7823C50.6812 39.3392 50.5464 40.0489 50.5464 40.9112V48.187H46.3427V40.5339C46.3427 39.3661 46.1001 38.5038 45.6151 37.947C45.1479 37.3901 44.4742 37.1116 43.594 37.1116C42.9833 37.1116 42.4353 37.2554 41.9502 37.5427C41.4652 37.8122 41.0879 38.2255 40.8184 38.7823C40.549 39.3392 40.4142 40.0489 40.4142 40.9112V48.187H36.2104V33.6893H40.2256L39.4711 36.4918C39.974 35.5038 40.6837 34.7581 41.5999 34.2552C42.534 33.7341 43.594 33.4737 44.7797 33.4737C46.1092 33.4737 47.2679 33.815 48.2559 34.4977C49.262 35.1623 49.9267 36.1863 50.25 37.5697L48.7679 37.1655C49.253 36.0337 50.0254 35.1354 51.0854 34.4707C52.1633 33.8061 53.3938 33.4737 54.7772 33.4737Z" fill="white"/>
<path d="M27.7727 48.2156C26.4971 48.2156 25.4013 47.9461 24.4851 47.4072C23.5689 46.8682 22.8682 46.0507 22.3832 44.955C21.8981 43.8411 21.6556 42.4398 21.6556 40.7512C21.6556 39.0444 21.9072 37.6432 22.4101 36.5474C22.9312 35.4516 23.6497 34.6341 24.5659 34.0952C25.4821 33.5562 26.551 33.2867 27.7727 33.2867C29.1379 33.2867 30.3596 33.5922 31.4375 34.203C32.5333 34.8137 33.3956 35.676 34.0244 36.7899C34.6712 37.9038 34.9945 39.2242 34.9945 40.7512C34.9945 42.2602 34.6712 43.5716 34.0244 44.6855C33.3956 45.7994 32.5333 46.6705 31.4375 47.2994C30.3596 47.9101 29.1379 48.2156 27.7727 48.2156ZM19.2034 48V28.0051H23.4072V36.4396L23.1377 40.7242L22.4101 45.015L23.2185 48H19.2034ZM27.0451 44.7663C27.7457 44.7663 28.3655 44.6046 28.9044 44.2813C29.4613 43.9579 29.9015 43.4998 30.2249 42.907C30.5661 42.2962 30.7369 41.5775 30.7369 40.7512C30.7369 39.9067 30.5661 39.1882 30.2249 38.5954C29.9015 38.0025 29.4613 37.5444 28.9044 37.2211C28.3655 36.8977 27.7457 36.736 27.0451 36.736C26.3444 36.736 25.7156 36.8977 25.1588 37.2211C24.6019 37.5444 24.1617 38.0025 23.8383 38.5954C23.515 39.1882 23.3533 39.9067 23.3533 40.7512C23.3533 41.5775 23.515 42.2962 23.8383 42.907C24.1617 43.4998 24.6019 43.9579 25.1588 44.2813C25.7156 44.6046 26.3444 44.7663 27.0451 44.7663Z" fill="white"/>
</g>
</g>
<defs>
<clipPath id="clip0_377_480">
<rect width="80" height="80" fill="white"/>
</clipPath>
</defs>
</svg>